<?xml version="1.0" standalone="no"?><!DOCTYPE svg PUBLIC "-//W3C//DTD SVG 1.1//EN" "http://www.w3.org/Graphics/SVG/1.1/DTD/svg11.dtd"><svg t="1609771993714" class="icon" viewBox="0 0 1024 1024" version="1.1" xmlns="http://www.w3.org/2000/svg" p-id="3149" data-spm-anchor-id="a313x.7781069.0.i3" xmlns:xlink="http://www.w3.org/1999/xlink" width="200" height="200"><defs><style type="text/css"></style></defs><path d="M782.336 949.248H241.664c-92.672 0-168.448-75.264-168.448-168.448v-537.6c0-92.672 75.264-168.448 168.448-168.448h540.672c92.672 0 168.448 75.264 168.448 168.448v537.6c-0.512 93.184-75.776 168.448-168.448 168.448zM241.664 138.24c-57.856 0-104.96 47.104-104.96 104.96v537.6c0 57.856 47.104 104.96 104.96 104.96h540.672c57.856 0 104.96-47.104 104.96-104.96v-537.6c0-57.856-47.104-104.96-104.96-104.96H241.664z" fill="#1296db" p-id="3150" data-spm-anchor-id="a313x.7781069.0.i4" class=""></path><path d="M512 299.008m-43.52 0a43.52 43.52 0 1 0 87.04 0 43.52 43.52 0 1 0-87.04 0Z" fill="#1296db" p-id="3151"></path><path d="M517.632 768.512H506.88c-17.408 0-31.232-14.336-31.232-31.232V420.352c0-17.408 14.336-31.232 31.232-31.232h10.752c17.408 0 31.232 14.336 31.232 31.232V737.28c0 17.408-14.336 31.232-31.232 31.232z" fill="#1296db" p-id="3152"></path></svg>