<?xml version="1.0" standalone="no"?><!DOCTYPE svg PUBLIC "-//W3C//DTD SVG 1.1//EN" "http://www.w3.org/Graphics/SVG/1.1/DTD/svg11.dtd"><svg t="1609772077942" class="icon" viewBox="0 0 1024 1024" version="1.1" xmlns="http://www.w3.org/2000/svg" p-id="4888" xmlns:xlink="http://www.w3.org/1999/xlink" width="200" height="200"><defs><style type="text/css"></style></defs><path d="M392.533333 923.306667c-8.533333 0-17.066667-3.413333-22.186666-10.24l-1.706667-1.706667c-1.706667-1.706667-1.706667-3.413333-3.413333-6.826667l-32.426667-104.106666L150.186667 225.28c0-1.706667-1.706667-1.706667-1.706667-3.413333L126.293333 153.6c0-1.706667-1.706667-5.12 0-6.826667 0-11.946667 10.24-20.48 23.893334-22.186666 13.653333-1.706667 23.893333 6.826667 29.013333 17.066666l11.946667 39.253334c66.56-32.426667 151.893333-56.32 209.92-56.32 32.426667 0 64.853333 3.413333 100.693333 11.946666 32.426667 6.826667 64.853333 17.066667 93.866667 27.306667 34.133333 11.946667 69.973333 17.066667 104.106666 17.066667 119.466667 0 197.973333-69.973333 199.68-71.68 8.533333-6.826667 20.48-8.533333 30.72-5.12 10.24 3.413333 17.066667 13.653333 15.36 23.893333l-25.6 334.506667c0 5.12-3.413333 10.24-6.826666 13.653333-3.413333 3.413333-97.28 92.16-252.586667 92.16-17.066667 0-34.133333-1.706667-52.906667-3.413333-15.36-1.706667-30.72-3.413333-46.08-3.413334-46.08 0-92.16 10.24-129.706666 27.306667-40.96 18.773333-69.973333 44.373333-85.333334 76.8l37.546667 119.466667 34.133333 105.813333c3.413333 11.946667-3.413333 23.893333-15.36 27.306667-3.413333 3.413333-6.826667 5.12-10.24 5.12z" p-id="4889" fill="#8A8A8A"></path></svg>