<?xml version="1.0" standalone="no"?><!DOCTYPE svg PUBLIC "-//W3C//DTD SVG 1.1//EN" "http://www.w3.org/Graphics/SVG/1.1/DTD/svg11.dtd"><svg t="1609745937150" class="icon" viewBox="0 0 1024 1024" version="1.1" xmlns="http://www.w3.org/2000/svg" p-id="2513" xmlns:xlink="http://www.w3.org/1999/xlink" width="200" height="200"><defs><style type="text/css"></style></defs><path d="M550.058667 185.6a54.613333 54.613333 0 0 0-73.386667 0l-296.96 281.941333a27.392 27.392 0 0 0 36.693333 40.704l4.693334-4.522666v294.272a54.784 54.784 0 0 0 54.784 54.869333h159.445333v-164.949333a38.570667 38.570667 0 0 1 38.570667-38.613334h75.008a38.570667 38.570667 0 0 1 38.613333 38.613334v164.949333h163.2a54.784 54.784 0 0 0 54.784-54.869333v-290.645334c12.202667 11.008 29.44 10.154667 39.594667-1.109333a27.392 27.392 0 0 0-2.005334-38.698667L550.058667 185.6z" p-id="2514" fill="#8a8a8a"></path></svg>