<?xml version="1.0" standalone="no"?><!DOCTYPE svg PUBLIC "-//W3C//DTD SVG 1.1//EN" "http://www.w3.org/Graphics/SVG/1.1/DTD/svg11.dtd"><svg t="1609772132657" class="icon" viewBox="0 0 1024 1024" version="1.1" xmlns="http://www.w3.org/2000/svg" p-id="5936" data-spm-anchor-id="a313x.7781069.0.i10" xmlns:xlink="http://www.w3.org/1999/xlink" width="200" height="200"><defs><style type="text/css"></style></defs><path d="M791.253333 573.568v-123.136a128 128 0 0 1 51.754667-102.826667l64.64-47.914666A72.917333 72.917333 0 0 1 1024 358.229333v307.541334a72.917333 72.917333 0 0 1-116.352 58.538666l-64.64-47.957333a128 128 0 0 1-51.754667-102.826667zM609.024 810.666667H89.088A89.301333 89.301333 0 0 1 0 721.664V302.336C0 253.354667 40.106667 213.333333 89.088 213.333333h519.936c48.981333 0 89.173333 40.021333 89.173333 89.002667v419.328A89.386667 89.386667 0 0 1 609.024 810.666667z m-329.770667-373.418667v149.461333c0 13.354667 14.72 21.589333 26.282667 14.72l126.208-74.709333a17.066667 17.066667 0 0 0 0-29.44l-126.208-74.666667a17.322667 17.322667 0 0 0-26.282667 14.634667z" p-id="5937" fill="#1296db"></path></svg>